<?xml version="1.0" encoding="iso-8859-1"?>
<!-- Uploaded to: SVG Repo, www.svgrepo.com, Generator: SVG Repo Mixer Tools -->
<svg height="800px" width="800px" version="1.1" id="Layer_1" xmlns="http://www.w3.org/2000/svg" xmlns:xlink="http://www.w3.org/1999/xlink" 
	 viewBox="0 0 512 512" xml:space="preserve">
<g>
	<path style="fill:#CCE8FF;" d="M301.858,448.037c0,23.892-8.517,45.568-23.369,59.496c-6.658,6.246-16.533,5.578-22.556,0.256
		c-0.367-0.312-0.713-0.657-1.047-1.013c-6.313-6.724-5.967-17.29,0.757-23.602c0.1-0.089,0.189-0.178,0.289-0.278
		c4.431-4.264,7.838-10.265,9.975-17.257c5.541-20.317,1.848-38.277-11.612-54.163c-9.808-11.656-22.022-26.152-22.022-58.071
		c0-23.892,8.517-45.579,23.38-59.496c0.089-0.089,0.189-0.167,0.278-0.256c6.602-5.945,16.566-5.511,22.69,0.379
		c6.836,6.48,6.925,17.624-0.145,24.237c-8.005,7.526-12.803,20.663-12.803,35.137c0,19.728,5.945,26.787,14.161,36.562
		C289.645,401.623,301.858,416.118,301.858,448.037z"/>
	<path style="fill:#CCE8FF;" d="M256,293.653c-0.089,0.089-0.189,0.167-0.278,0.256c-14.863,13.917-23.38,35.604-23.38,59.496
		c0,31.919,12.213,46.414,22.022,58.071c0.58,0.685,1.119,1.379,1.662,2.072V293.631C256.018,293.639,256.008,293.645,256,293.653z"
		/>
	<path style="fill:#CCE8FF;" d="M256,482.895c-0.1,0.1-0.189,0.189-0.289,0.278c-6.724,6.313-7.07,16.878-0.757,23.602
		c0.334,0.356,0.679,0.701,1.047,1.013c0.009,0.008,0.018,0.013,0.026,0.021v-24.942C256.017,482.877,256.009,482.887,256,482.895z"
		/>
</g>
<path style="fill:#B0DBFF;" d="M279.903,389.966c-8.216-9.775-14.161-16.833-14.161-36.562c0-14.473,4.798-27.61,12.803-35.137
	c7.07-6.613,6.981-17.758,0.145-24.237c-6.115-5.882-16.061-6.32-22.664-0.4v119.916c12.075,15.373,15.251,32.65,9.95,52.091
	c-2.133,6.977-5.531,12.967-9.95,17.23v24.942c6.025,5.302,15.882,5.961,22.53-0.277c14.852-13.928,23.369-35.604,23.369-59.496
	C301.925,416.118,289.712,401.623,279.903,389.966z"/>
<path style="fill:#FF80AC;" d="M256,330.273c-19.102,0-38.195-6.551-53.775-19.651c-88.299-74.224-147.08-121.594-147.08-194.076
	C55.145,51.192,102.929,0,163.923,0C211.805,0,240.355,30.279,256,56.107C271.646,30.279,300.196,0,348.078,0
	c60.993,0,108.777,51.192,108.777,116.546c0,72.259-58.396,119.631-147.091,194.076C294.195,323.722,275.092,330.273,256,330.273z"
	/>
<path style="fill:#F26D99;" d="M348.078,0C300.196,0,271.646,30.279,256,56.107v274.167c19.091,0,38.195-6.551,53.764-19.651
	c88.696-74.446,147.091-121.817,147.091-194.076C456.855,51.192,409.071,0,348.078,0z"/>
</svg>