<?xml version="1.0" encoding="iso-8859-1"?>
<!-- Uploaded to: SVG Repo, www.svgrepo.com, Generator: SVG Repo Mixer Tools -->
<svg height="800px" width="800px" version="1.1" id="Layer_1" xmlns="http://www.w3.org/2000/svg" xmlns:xlink="http://www.w3.org/1999/xlink" 
	 viewBox="0 0 503.466 503.466" xml:space="preserve">
<path style="fill:#FF7474;" d="M337.273,4.266c61.44,0,110.933,49.493,110.933,110.933c0,78.507-96.427,187.733-162.133,221.013
	c0,0-20.48,7.68-34.133,9.387c-59.733,0-196.267-136.533-196.267-230.4c0-61.44,49.493-110.933,110.933-110.933
	c34.133,0,64.853,15.36,85.333,40.107C272.42,19.626,303.14,4.266,337.273,4.266"/>
<path style="fill:#51565F;" d="M251.94,503.466c-1.707,0-3.413-0.853-4.267-2.56c-0.853-1.707-17.92-45.227,0-80.213
	c13.653-27.307,4.267-61.44,0.853-70.827C185.38,345.6,51.407,211.627,51.407,115.2C51.407,52.053,103.46,0,166.607,0
	c32.427,0,63.147,13.653,85.333,37.547C274.127,13.653,304.847,0,337.273,0c63.147,0,115.2,52.053,115.2,115.2
	c0,82.773-98.133,191.147-164.693,224.427c-1.707,0.853-4.267,0-5.973-1.707c-0.853-1.707,0-4.267,1.707-5.973
	C346.66,300.373,443.94,193.706,443.94,115.2c0-58.88-47.787-106.667-106.667-106.667c-31.573,0-61.44,13.653-81.92,38.4
	c-1.707,1.707-5.12,1.707-6.827,0c-20.48-24.747-50.347-38.4-81.92-38.4C107.726,8.533,59.94,56.32,59.94,115.2
	c0,92.16,134.827,226.133,192,226.133c1.707,0,3.413,0.853,4.267,2.56c0.853,1.707,17.92,45.227,0,80.213
	c-16.213,31.573,0,72.533,0,73.387c0.853,2.56,0,4.267-2.56,5.12C252.793,503.466,252.793,503.466,251.94,503.466z M329.593,436.053
	c-1.707,0-3.413-0.853-4.267-3.413c0,0-1.707-6.827,0-14.507c1.707-6.827,5.973-16.213,20.48-20.48
	c8.533-2.56,9.387-7.68,9.387-17.92c0.853-10.24,1.707-22.187,16.213-26.453c7.68-2.56,12.8-6.827,14.507-13.653
	c0.853-5.12,0-10.24,0-10.24c-0.853-2.56,0.853-4.267,3.413-5.12c2.56-0.853,4.267,0.853,5.12,3.413c0,0,1.707,6.827,0,14.507
	c-1.707,6.827-5.973,16.213-20.48,20.48c-8.533,2.56-9.387,7.68-9.387,17.92c-0.853,10.24-1.707,22.187-16.213,26.453
	c-7.68,2.56-12.8,6.827-14.507,13.653c-0.853,5.12,0,10.24,0,10.24c0.853,2.56-0.853,4.267-3.413,5.12
	C330.447,436.053,329.593,436.053,329.593,436.053z M64.207,366.933h-0.853c-9.387-2.56-25.6-12.8-20.48-34.987
	c2.56-8.533-2.56-11.947-11.093-17.92c-8.533-5.12-18.773-11.947-14.507-26.453c5.12-18.773-13.653-23.893-13.653-24.747
	c-2.56-0.853-3.413-2.56-3.413-5.12c0-2.56,2.56-3.413,5.12-3.413c9.387,2.56,25.6,12.8,20.48,34.987
	c-2.56,8.533,2.56,11.947,11.093,17.92c8.533,5.12,18.773,11.947,14.507,26.453c-5.12,18.773,13.653,23.893,13.653,24.747
	c2.56,0.853,3.413,2.56,3.413,5.12C67.62,366.08,65.913,366.933,64.207,366.933z M491.727,332.8c-0.853,0-2.56,0-3.413-0.853
	c0,0-5.12-5.12-7.68-11.947c-2.56-6.827-2.56-17.067,7.68-28.16c5.973-5.973,3.413-11.947-0.853-20.48
	c-4.267-8.533-10.24-19.627,0.853-30.72c13.653-13.653,1.707-26.453,0-28.16c-1.707-1.707-1.707-4.267,0-5.973s4.267-1.707,5.973,0
	c6.827,6.827,16.213,23.893,0,40.107c-5.973,5.973-3.413,11.947,0.853,20.48c4.267,8.533,10.24,19.627-0.853,30.72
	c-13.653,13.653-1.707,26.453,0,28.16c1.707,1.707,1.707,4.267,0,5.973C494.287,332.8,492.58,332.8,491.727,332.8z M414.073,119.466
	c-2.56,0-4.267-1.707-4.267-4.267c0-11.093-2.56-22.187-7.68-32.427c-6.827-14.507-18.773-25.6-32.427-32.427
	c-1.707-0.853-2.56-3.413-1.707-5.973c0.853-1.707,3.413-2.56,5.973-1.707c15.36,7.68,29.013,20.48,36.693,36.693
	c5.973,11.093,8.533,23.04,8.533,35.84C418.34,117.76,416.633,119.466,414.073,119.466z"/>
</svg>