<?xml version="1.0" encoding="iso-8859-1"?>
<!-- Uploaded to: SVG Repo, www.svgrepo.com, Generator: SVG Repo Mixer Tools -->
<svg height="800px" width="800px" version="1.1" id="Layer_1" xmlns="http://www.w3.org/2000/svg" xmlns:xlink="http://www.w3.org/1999/xlink" 
	 viewBox="0 0 511.999 511.999" xml:space="preserve">
<path style="fill:#67D1D3;" d="M232.463,327.002c3.58,11.834-5.194,17.449-17.028,21.029c-11.834,3.58-22.249,3.769-25.829-8.065
	s3.112-24.33,14.947-27.909C216.388,308.476,228.883,315.168,232.463,327.002z"/>
<path style="fill:#F7CF6D;" d="M347.015,319.259c0,12.364-10.023,11.376-22.387,11.376s-22.387,0.989-22.387-11.376
	c0-12.364,10.023-22.387,22.387-22.387C336.991,296.871,347.015,306.895,347.015,319.259z"/>
<ellipse style="fill:#88E2E2;" cx="165.546" cy="190.044" rx="121.279" ry="128.802"/>
<path style="fill:#67D1D3;" d="M236.536,85.621c17.125,22.209,27.405,50.604,27.405,81.55c0,71.134-54.295,128.799-121.272,128.799
	c-26.511,0-51.032-9.042-70.989-24.371c22.24,28.84,56.027,47.249,93.867,47.249c66.977,0,121.272-57.666,121.272-128.799
	C286.82,147.072,266.997,109.018,236.536,85.621z"/>
<ellipse style="fill:#F9DE8F;" cx="332.499" cy="153.249" rx="135.231" ry="143.612"/>
<path style="fill:#F7CF6D;" d="M412.029,37.102c19.257,24.815,30.824,56.614,30.824,91.282c0,79.318-60.542,143.617-135.224,143.617
	c-29.728,0-57.21-10.197-79.531-27.465c24.802,31.959,62.36,52.335,104.401,52.335c74.682,0,135.224-64.3,135.224-143.617
	C467.723,105.51,445.78,63.216,412.029,37.102z"/>
<path d="M477.049,152.943C477.049,68.61,412.204,0,332.499,0c-27.807,0-54.812,8.374-78.096,24.217
	c-14.719,10.015-27.506,22.706-37.851,37.397c-16.107-7.255-33.224-10.934-51.005-10.934c-45.71,0-87.317,24.605-111.298,65.82
	c-2.59,4.452-1.082,10.161,3.37,12.751c1.476,0.858,3.089,1.267,4.682,1.267c3.212,0,6.338-1.661,8.069-4.637
	c20.604-35.409,56.184-56.548,95.177-56.548c14.284,0,28.072,2.792,41.11,8.307c-1.592,2.974-3.096,6.007-4.501,9.1
	c-2.13,4.689-0.057,10.218,4.632,12.349c4.689,2.129,10.219,0.056,12.349-4.632c2.467-5.428,5.27-10.647,8.371-15.64
	c0.121-0.178,0.229-0.367,0.337-0.555c9.671-15.398,22.26-28.561,37.05-38.624c20.177-13.728,43.554-20.985,67.603-20.985
	c69.421,0,125.898,60.243,125.898,134.291s-56.477,134.291-125.898,134.291c-69.42,0-125.897-60.243-125.897-134.291
	c0-5.151-4.176-9.326-9.326-9.326s-9.326,4.176-9.326,9.326c0,49.213,22.087,93.062,56.318,121.057
	c-20.357,22.178-47.975,34.278-78.719,34.278c-61.727,0-111.946-53.596-111.946-119.473c0-5.151-4.176-9.326-9.326-9.326
	s-9.326,4.176-9.326,9.326c0,76.163,58.586,138.125,130.599,138.125c4.32,0,8.583-0.216,12.789-0.619
	c-1.173,5.255-0.99,10.748,0.612,16.042c2.628,8.686,8.581,14.448,16.765,16.226c1.879,0.409,3.856,0.614,5.966,0.614
	c3.115,0,6.527-0.454,10.337-1.362c4.275,9.947,5.925,19.617,4.894,28.824c-1.159,10.362-6.23,17.502-11.599,25.06
	c-6.07,8.545-12.949,18.23-13.325,32.306c-0.91,34.007,17.132,56.858,24.931,65.102c3.777,3.993,10.377,3.793,13.915-0.407
	c3.015-3.579,2.849-9.014-0.364-12.41c-4.842-5.118-20.58-23.981-19.836-51.787c0.225-8.401,4.489-14.403,9.887-22.004
	c6.203-8.732,13.233-18.63,14.929-33.787c1.375-12.298-0.66-24.941-6.048-37.692c2.041-1.288,3.793-2.697,5.297-4.25
	c5.826-6.016,7.588-14.114,4.96-22.798c-1.737-5.745-5.01-10.743-9.412-14.604c10.772-6.472,20.61-14.673,29.281-24.468
	c11.899,7.394,24.881,13.036,38.628,16.595c-3.308,5.006-5.241,10.997-5.241,17.434c0,6.176,1.824,11.122,5.42,14.698
	c3.442,3.422,7.767,4.911,12.428,5.551c-6.317,15.408-8.317,30.446-5.907,44.856c2.637,15.761,9.825,26.347,16.167,35.688
	c5.851,8.617,10.904,16.06,11.935,26.678c1.362,14.023-4.909,29.573-18.638,46.22c-3.02,3.663-2.753,9.177,0.604,12.531
	c3.837,3.835,10.337,3.519,13.785-0.663c16.995-20.609,24.671-40.758,22.813-59.892c-1.491-15.355-8.394-25.52-15.069-35.351
	c-5.78-8.512-11.239-16.552-13.202-28.29c-2.152-12.869,0.476-26.746,7.782-41.315c7.39-0.075,14.658-0.815,19.886-6.014
	c3.596-3.576,5.42-8.522,5.42-14.698c0-5.253-1.291-10.207-3.561-14.574C422.917,293.907,477.049,229.994,477.049,152.943z
	 M221.806,329.392c0.899,2.971,0.152,3.742-0.506,4.422c-1.165,1.204-19.989,6.899-21.624,6.541c-0.925-0.201-1.973-0.429-2.872-3.4
	c-0.981-3.243,0.036-12.297,8.029-15.837C213.176,317.421,220.836,326.185,221.806,329.392z M337.581,320.419
	c-1.876,0.635-24.029,0.634-25.906,0c-0.052-0.292-0.108-0.766-0.108-1.472c0-7.202,5.859-13.06,13.06-13.06
	c7.202,0,13.06,5.859,13.06,13.06C337.689,319.653,337.633,320.127,337.581,320.419z"/>
</svg>